<?xml version="1.0" encoding="UTF-8" standalone="no"?>
<!DOCTYPE svg PUBLIC "-//W3C//DTD SVG 1.1//EN" "http://www.w3.org/Graphics/SVG/1.1/DTD/svg11.dtd">
<!-- Created with Vectornator (http://vectornator.io/) -->
<svg height="100%" stroke-miterlimit="10" style="fill-rule:nonzero;clip-rule:evenodd;stroke-linecap:round;stroke-linejoin:round;" version="1.1" viewBox="0 0 160 160" width="100%" xml:space="preserve" xmlns="http://www.w3.org/2000/svg" xmlns:xlink="http://www.w3.org/1999/xlink">
<defs/>
<g id="Dell" visibility="hidden">
<path d="M74.3978 60.131L54.5267 75.4177C52.4889 67.7732 45.8622 62.1666 37.7089 62.1666L23.4424 62.1666L23.4424 97.3266L37.7089 97.3266C45.8618 97.3266 52.9944 91.719 54.5231 84.0757L74.3973 99.3621L94.2716 84.0757L94.2716 97.3266L116.689 97.3266L116.689 90.1912L101.915 90.1912L101.915 62.1668L93.7598 62.1668L93.7598 75.4132L74.9056 90.7041L70.8278 87.1352L80.0033 79.9997L89.6822 72.3563L84.0789 67.773L65.2247 82.5472L61.1491 78.9794L80.0033 64.713L74.3958 60.1297L74.3978 60.131ZM31.0867 69.2977L37.2022 69.2977C38.4761 69.2977 39.7189 69.5882 40.8653 70.1136C42.0118 70.6391 43.0596 71.4022 43.9513 72.3576C44.8431 73.3131 45.5772 74.4576 46.0868 75.7474C46.5963 77.0372 46.881 78.4723 46.881 80.001C46.881 81.4023 46.6259 82.7714 46.1562 84.0374C45.6864 85.3034 45.0022 86.4659 44.1423 87.4532C43.2824 88.4405 42.2485 89.2534 41.0781 89.8188C39.9077 90.384 38.6034 90.6998 37.2023 90.6998L31.0868 90.6998C31.0868 90.6998 31.0868 69.2978 31.0867 69.2977ZM142.169 90.1934L142.169 97.3272L119.749 97.3272L119.749 62.1672L127.902 62.1672L127.902 90.1917L142.169 90.1917L142.169 90.1934ZM80 0.000111111C36.1778 0.000111111 0 36.1779 0 80.0001C0 123.822 35.6689 160 80 160C124.331 160 160 124.331 160 80.0001C160 35.669 123.822 0.000111111 80 0.000111111ZM80 8.15544C84.968 8.15539 89.8151 8.65404 94.4964 9.60944C99.178 10.5648 103.695 11.9739 107.995 13.7892C112.294 15.6045 116.378 17.8286 120.2 20.4081C124.021 22.9877 127.58 25.9228 130.829 29.1712C134.077 32.4197 137.012 35.979 139.592 39.8006C142.172 43.6221 144.396 47.7061 146.211 52.0054C148.026 56.3048 149.435 60.8223 150.391 65.5037C151.346 70.1852 151.845 75.0321 151.845 80.0001C151.845 84.9681 151.346 89.8152 150.391 94.4966C149.435 99.1781 148.026 103.695 146.211 107.995C144.396 112.294 142.172 116.378 139.592 120.2C137.012 124.021 134.077 127.581 130.829 130.829C127.58 134.077 124.021 137.012 120.2 139.592C116.378 142.172 112.294 144.396 107.995 146.211C103.695 148.026 99.1778 149.435 94.4964 150.391C89.8149 151.346 84.968 151.845 80 151.845C75.032 151.845 70.1849 151.346 65.5036 150.391C60.8213 149.442 56.3036 148.033 52.0036 146.217C47.7058 144.402 43.6213 142.177 39.7991 139.597C35.9769 137.02 32.4191 134.084 29.1702 130.835C25.9213 127.586 22.9858 124.029 20.4071 120.206C17.8276 116.384 15.6036 112.3 13.7882 108.002C11.9729 103.702 10.564 99.1841 9.60844 94.5019C8.65311 89.8219 8.15444 84.9752 8.15444 80.0063C8.15444 75.0374 8.65311 70.1908 9.60844 65.5108C10.5638 60.8286 11.9729 56.3108 13.7882 52.0108C15.6036 47.713 17.8276 43.6286 20.4071 39.8063C22.9858 35.9841 25.9213 32.4263 29.1702 29.1774C32.4191 25.9286 35.9769 22.993 39.7991 20.4143C43.6213 17.8348 47.7058 15.6108 52.0036 13.7954C56.3036 11.9801 60.8213 10.5712 65.5036 9.61567C70.1836 8.66033 75.0302 8.16167 79.9991 8.16167L80 8.15544Z" fill="#007db8" fill-rule="nonzero" opacity="1" stroke="none"/>
</g>
<g id="AMD">
<path d="M37.5776 96.5443L28.704 96.5443L25.9894 89.9967L11.2006 89.9967L8.7274 96.5443L0 96.5443L13.3334 63.4751L22.8856 63.4751L37.5776 96.5443ZM18.231 71.3771L13.3824 84.2259L23.565 84.2259L18.231 71.3771ZM69.8112 63.4751L76.9872 63.4751L76.9872 96.5443L68.7434 96.5443L68.7434 75.8883L59.8218 86.2637L58.5616 86.2637L49.6406 75.8883L49.6406 96.5439L41.3968 96.5439L41.3968 63.4751L48.5728 63.4751L59.1912 75.7423L69.8112 63.4751ZM97.875 63.4751C109.948 63.4751 116.153 70.9897 116.153 80.0569C116.153 89.5603 110.142 96.5443 96.9532 96.5443L83.2794 96.5443L83.2794 63.4751L97.875 63.4751ZM91.5226 90.4833L96.9038 90.4833C105.195 90.4833 107.668 84.8575 107.668 80.0079C107.668 74.3343 104.613 69.5353 96.8068 69.5353L91.5224 69.5353L91.5224 90.4833L91.5226 90.4833ZM132.554 71.3161L122.159 60.9199L160 60.9199L160 98.7619L149.606 88.3669L149.606 71.3161L132.554 71.3161ZM132.542 73.3993L121.84 84.1005L121.84 99.0803L136.818 99.0803L147.519 88.3791L132.542 88.3791L132.542 73.3993Z" fill="#000000" fill-rule="nonzero" opacity="1" stroke="none"/>
</g>
<g id="Intel" visibility="hidden">
<g opacity="1">
<path d="M1.42109e-14 49.8301L11.5817 49.8301L11.5817 49.8301L11.5817 61.4118L11.5817 61.4118L1.42109e-14 61.4118L1.42109e-14 61.4118L1.42109e-14 49.8301L1.42109e-14 49.8301Z" fill="#0052a5" fill-rule="nonzero" opacity="1" stroke="none"/>
<g opacity="1">
<path d="M11.2931 110.17L11.2931 68.4597L0.329727 68.4597L0.329727 110.17L11.2931 110.17ZM84.1628 110.582L84.1628 100.361C82.5554 100.361 81.1953 100.278 80.2061 100.113C79.052 99.9486 78.1865 99.5364 77.6095 98.9594C77.0325 98.3824 76.6615 97.5581 76.4554 96.4865C76.2906 95.4561 76.2081 94.0959 76.2081 92.4473L76.2081 77.8569L84.1628 77.8569L84.1628 68.4597L76.2081 68.4597L76.2081 52.1794L65.2035 52.1794L65.2035 92.5297C65.2035 95.9507 65.492 98.8358 66.069 101.144C66.6461 103.411 67.6352 105.265 68.9954 106.667C70.3555 108.068 72.169 109.057 74.3534 109.676C76.5791 110.294 79.3818 110.582 82.7202 110.582L84.1628 110.582L84.1628 110.582ZM147.141 110.17L147.141 48.9646L136.136 48.9646L136.136 110.17L147.141 110.17ZM54.611 72.54C51.5611 69.2428 47.2746 67.5941 41.8341 67.5941C39.1963 67.5941 36.8058 68.1299 34.6213 69.2016C32.4781 70.2732 30.6234 71.7569 29.1808 73.6529L28.5626 74.436L28.5626 73.7353L28.5626 68.4597L17.7228 68.4597L17.7228 110.17L28.645 110.17L28.645 87.9548L28.645 89.4798C28.645 89.2325 28.645 88.9852 28.645 88.7379C28.7687 84.8224 29.7166 81.9373 31.5301 80.0825C33.4673 78.1042 35.8166 77.115 38.4956 77.115C41.6692 77.115 44.101 78.1042 45.7084 80.0001C47.2746 81.896 48.0989 84.5751 48.0989 87.996L48.0989 87.996L48.0989 88.0784L48.0989 88.0784L48.0989 88.0784L48.0989 110.129L59.186 110.129L59.186 86.471C59.2272 80.5359 57.661 75.8373 54.611 72.54ZM130.448 89.2325C130.448 86.2237 129.912 83.421 128.882 80.7832C127.81 78.1866 126.327 75.8785 124.472 73.9002C122.576 71.9218 120.309 70.3968 117.671 69.284C115.033 68.1712 112.107 67.6354 108.934 67.6354C105.925 67.6354 103.081 68.2124 100.443 69.3252C97.8053 70.4792 95.4972 72.0042 93.56 73.9414C91.6229 75.8785 90.0567 78.1866 88.9438 80.8244C87.7898 83.4622 87.254 86.3061 87.254 89.3149C87.254 92.3237 87.7898 95.1676 88.8614 97.8054C89.933 100.443 91.458 102.751 93.3539 104.688C95.2499 106.626 97.5992 108.192 100.319 109.305C103.04 110.459 106.048 111.036 109.263 111.036C118.578 111.036 124.348 106.79 127.81 102.834L119.897 96.8162C118.248 98.7945 114.292 101.474 109.346 101.474C106.255 101.474 103.699 100.773 101.762 99.3304C99.8248 97.929 98.5059 95.9507 97.8053 93.5189L97.6816 93.148L130.448 93.148L130.448 89.2325L130.448 89.2325ZM97.764 85.3994C97.764 82.3494 101.267 77.0326 108.81 76.9914C116.352 76.9914 119.897 82.3082 119.897 85.3582L97.764 85.3994Z" fill="#000000" fill-rule="nonzero" opacity="1" stroke="none"/>
<path d="M159.67 104.73C159.464 104.235 159.176 103.823 158.805 103.452C158.434 103.081 158.022 102.792 157.527 102.586C157.032 102.38 156.497 102.257 155.961 102.257C155.384 102.257 154.889 102.38 154.395 102.586C153.9 102.792 153.488 103.081 153.117 103.452C152.746 103.823 152.457 104.235 152.251 104.73C152.045 105.224 151.922 105.76 151.922 106.296C151.922 106.873 152.045 107.367 152.251 107.862C152.457 108.357 152.746 108.769 153.117 109.14C153.488 109.511 153.9 109.799 154.395 110.005C154.889 110.211 155.425 110.335 155.961 110.335C156.538 110.335 157.032 110.211 157.527 110.005C158.022 109.799 158.434 109.511 158.805 109.14C159.176 108.769 159.464 108.357 159.67 107.862C159.876 107.367 160 106.832 160 106.296C160 105.76 159.876 105.224 159.67 104.73ZM159.011 107.615C158.846 108.027 158.599 108.398 158.31 108.686C158.022 108.975 157.651 109.222 157.239 109.387C156.826 109.552 156.414 109.634 155.92 109.634C155.466 109.634 155.013 109.552 154.601 109.387C154.189 109.222 153.818 108.975 153.529 108.686C153.241 108.398 152.993 108.027 152.828 107.615C152.664 107.203 152.581 106.79 152.581 106.296C152.581 105.842 152.664 105.389 152.828 104.977C152.993 104.565 153.241 104.194 153.529 103.905C153.818 103.617 154.189 103.37 154.601 103.205C155.013 103.04 155.425 102.957 155.92 102.957C156.373 102.957 156.826 103.04 157.239 103.205C157.651 103.37 158.022 103.617 158.31 103.905C158.599 104.194 158.846 104.565 159.011 104.977C159.176 105.389 159.258 105.801 159.258 106.296C159.299 106.79 159.176 107.203 159.011 107.615ZM156.703 106.626C157.032 106.584 157.28 106.461 157.486 106.255C157.692 106.049 157.816 105.76 157.816 105.348C157.816 104.894 157.692 104.565 157.403 104.317C157.156 104.07 156.703 103.947 156.167 103.947L154.353 103.947L154.353 108.604L155.219 108.604L155.219 106.708L155.837 106.708L156.991 108.604L157.898 108.604L156.703 106.626ZM156.249 105.966C156.126 105.966 156.002 105.966 155.837 105.966L155.219 105.966L155.219 104.647L155.837 104.647C155.961 104.647 156.084 104.647 156.249 104.647C156.373 104.647 156.497 104.688 156.62 104.73C156.744 104.771 156.826 104.853 156.868 104.936C156.909 105.018 156.95 105.142 156.95 105.307C156.95 105.472 156.909 105.595 156.868 105.678C156.785 105.76 156.703 105.842 156.62 105.884C156.497 105.925 156.373 105.966 156.249 105.966Z" fill="#000000" fill-rule="nonzero" opacity="1" stroke="none"/>
</g>
</g>
</g>
<clipPath id="ArtboardFrame">
<rect height="160" width="160" x="0" y="0"/>
</clipPath>
<g clip-path="url(#ArtboardFrame)" id="McAfee" visibility="hidden">
<g opacity="1">
<path d="M79.9064 84.6785L75.7146 82.2083L75.4152 82.6948C74.4795 84.1919 73.1696 84.9405 71.5602 84.9405C68.7906 84.9405 66.7322 82.8446 66.7322 80.1124C66.7322 77.3428 68.8281 75.2843 71.5602 75.2843C73.207 75.2843 74.4047 75.9954 75.4152 77.5299L75.7146 78.0165L79.9064 75.5463L79.5322 75.0223C77.5111 72.103 74.9286 70.7182 71.5228 70.7182C65.1228 70.7182 61.6795 75.5837 61.6795 80.1498C61.6795 84.7159 65.1228 89.5814 71.5228 89.5814C74.7789 89.5814 77.8479 87.9346 79.5322 85.2399L79.9064 84.6785Z" fill="#c01818" fill-rule="nonzero" opacity="1" stroke="none"/>
<path d="M79.6819 89.5065L85.4456 89.5065L87.1673 85.2399L95.8129 85.2399L97.5345 89.5065L103.336 89.5065L93.0058 64.5428L87.8409 64.5428L89.2257 67.8738L79.6819 89.5065M91.5462 74.3861L93.8667 80.2621L89.1509 80.2621L91.5462 74.3861Z" fill="#c01818" fill-rule="nonzero" opacity="1" stroke="none"/>
<path d="M105.731 89.544L110.784 89.544L110.784 78.3159L114.077 78.3159L114.077 73.6001L110.784 73.6001L110.784 71.3919C110.784 70.4188 111.42 69.4083 112.618 69.4083C113.254 69.4083 113.666 69.5206 114.04 69.6703L114.601 69.8948L116.697 65.2913L116.136 65.1042C115.2 64.7299 113.89 64.5802 112.954 64.5802C110.671 64.5802 108.763 65.3288 107.49 66.751C106.367 67.9861 105.731 69.7077 105.731 71.6165L105.731 73.6375L103.485 73.6375L103.485 78.3533L105.731 78.3533L105.731 89.544Z" fill="#c01818" fill-rule="nonzero" opacity="1" stroke="none"/>
<path d="M54.007 75.1346L54.007 89.5065L59.5088 89.5065L59.5088 64.3931L48.6924 72.5522L37.8386 64.3931L37.8386 89.4691L43.3404 89.5065L43.3404 75.1346L48.6924 79.1019L54.007 75.1346Z" fill="#c01818" fill-rule="nonzero" opacity="1" stroke="none"/>
<path d="M125.492 70.7182C119.13 70.7182 115.687 75.5463 115.687 80.1124C115.687 84.6785 119.13 89.5065 125.492 89.5065C128.412 89.4691 131.144 88.1592 133.277 85.7264L129.16 83.4808C128.112 84.5662 126.802 85.1276 125.38 85.1276C123.284 85.1276 121.45 83.7428 120.964 81.9089L134.737 81.9089L134.737 80.6738C134.774 73.8247 129.347 70.7557 125.492 70.7182ZM121.076 77.8293C121.75 76.1077 123.172 75.1346 125.006 75.1346C126.877 75.1346 128.337 76.1077 129.085 77.8668L121.076 77.8293Z" fill="#c01818" fill-rule="nonzero" opacity="1" stroke="none"/>
<path d="M146.189 70.7557C139.827 70.7557 136.384 75.5837 136.384 80.1498C136.384 84.7159 139.827 89.544 146.189 89.544C149.109 89.5065 151.841 88.1966 153.974 85.7639L149.857 83.5182C148.809 84.6036 147.499 85.165 146.077 85.165C143.981 85.165 142.147 83.7802 141.661 81.9463L155.434 81.9463L155.434 80.7112C155.471 73.8621 150.044 70.7557 146.189 70.7557ZM141.773 77.8293C142.447 76.1077 143.869 75.0972 145.703 75.1346C147.574 75.1346 149.034 76.1077 149.782 77.8668L141.773 77.8293Z" fill="#c01818" fill-rule="nonzero" opacity="1" stroke="none"/>
<path d="M154.798 69.8948L156.931 69.8948L156.931 70.3065L156.07 70.3065L156.07 72.5521L155.621 72.5521L155.621 70.3065L154.798 70.3065L154.798 69.8948Z" fill="#c01818" fill-rule="nonzero" opacity="1" stroke="none"/>
<path d="M157.268 69.8948L157.904 69.8948L158.653 71.9533L159.364 69.8948L160 69.8948L160 72.5521L159.551 72.5521L159.551 70.4937L158.802 72.5521L158.428 72.5521L157.68 70.4937L157.68 72.5521L157.23 72.5521L157.23 69.8948L157.268 69.8948Z" fill="#c01818" fill-rule="nonzero" opacity="1" stroke="none"/>
<path d="M13.586 70.6434L-7.10543e-15 64.3557L-7.10543e-15 89.3568L13.586 95.6446L13.586 89.5065L5.57661 85.8013L5.57661 73.0761L13.586 76.7814L13.586 70.6434Z" fill="#c01818" fill-rule="nonzero" opacity="1" stroke="none"/>
<path d="M13.586 70.6434L27.2094 64.3557L27.2094 89.3568L13.586 95.6446L13.586 89.5065L21.6327 85.8013L21.6327 73.0761L13.586 76.7814L13.586 70.6434Z" fill="#75160d" fill-rule="nonzero" opacity="1" stroke="none"/>
</g>
</g>
<g id="Nvidia" visibility="hidden">
<g opacity="1">
<path d="M158.883 135.178C158.883 136.894 157.623 138.046 156.13 138.046L156.13 138.036C154.596 138.046 153.358 136.894 153.358 135.178C153.358 133.462 154.596 132.313 156.13 132.313C157.623 132.313 158.883 133.462 158.883 135.178ZM160 135.178C160 132.822 158.17 131.454 156.13 131.454C154.077 131.454 152.247 132.822 152.247 135.178C152.247 137.532 154.077 138.905 156.13 138.905C158.17 138.905 160 137.532 160 135.178M155.489 135.493L155.903 135.493L156.863 137.178L157.918 137.178L156.854 135.422C157.404 135.382 157.856 135.121 157.856 134.381C157.856 133.462 157.223 133.166 156.149 133.166L154.596 133.166L154.596 137.178L155.489 137.178L155.489 135.493M155.489 134.813L155.489 133.847L156.109 133.847C156.447 133.847 156.908 133.874 156.908 134.287C156.908 134.735 156.669 134.813 156.271 134.813L155.489 134.813" fill="#000000" fill-rule="nonzero" opacity="1" stroke="none"/>
<path d="M133.941 114.654L138.766 127.853L128.967 127.853L133.941 114.654ZM128.774 109.515L117.656 137.685L125.507 137.685L127.265 132.708L140.423 132.708L142.088 137.685L150.611 137.685L139.409 109.511L128.774 109.515ZM106.452 137.696L114.417 137.696L114.417 109.506L106.451 109.505L106.452 137.696ZM51.1545 109.505L44.5089 131.847L38.1428 109.506L29.5482 109.505L38.6404 137.696L50.1157 137.696L59.2811 109.505L51.1545 109.505ZM83.3521 115.643L86.7755 115.643C91.7422 115.643 94.9539 117.873 94.9539 123.66C94.9539 129.448 91.7422 131.678 86.7755 131.678L83.3521 131.678L83.3521 115.643ZM75.4531 109.505L75.4531 137.696L88.367 137.696C95.2471 137.696 97.4933 136.552 99.9225 133.986C101.638 132.185 102.748 128.232 102.748 123.91C102.748 119.947 101.809 116.413 100.171 114.212C97.2211 110.274 92.9709 109.505 86.628 109.505L75.4531 109.505ZM0 109.465L0 137.696L8.03254 137.696L8.03254 116.26L14.2566 116.262C16.3175 116.262 17.7866 116.776 18.779 117.836C20.0378 119.177 20.5517 121.341 20.5517 125.299L20.5517 137.696L28.3355 137.696L28.3355 122.098C28.3355 110.966 21.2401 109.465 14.2976 109.465L0 109.465ZM62.6335 109.505L62.6367 137.696L70.5984 137.696L70.5984 109.505L62.6335 109.505Z" fill="#000000" fill-rule="nonzero" opacity="1" stroke="none"/>
<path d="M21.4071 53.3727C21.4071 53.3727 31.6519 38.2573 52.1074 36.694L52.1074 31.2096C29.4504 33.0293 9.83043 52.2187 9.83043 52.2187C9.83043 52.2187 20.9428 84.3434 52.1074 87.2847L52.1074 81.4558C29.2369 78.5782 21.4071 53.3727 21.4071 53.3727ZM52.1074 69.863L52.1074 75.2012C34.8227 72.1196 30.0249 54.1516 30.0249 54.1516C30.0249 54.1516 38.324 44.958 52.1074 43.4675L52.1074 49.3251C52.0969 49.3251 52.0896 49.322 52.081 49.322C44.8467 48.4538 39.1953 55.2114 39.1953 55.2114C39.1953 55.2114 42.3624 66.5889 52.1074 69.863M52.1074 21.0951L52.1074 31.2096C52.7725 31.1582 53.4376 31.1154 54.1063 31.0927C79.8649 30.2245 96.6484 52.2187 96.6484 52.2187C96.6484 52.2187 77.372 75.6582 57.2894 75.6582C55.4488 75.6582 53.7258 75.4875 52.1074 75.2012L52.1074 81.4558C53.4913 81.6315 54.9262 81.7348 56.4235 81.7348C75.1117 81.7348 88.6265 72.1906 101.713 60.8947C103.883 62.6324 112.765 66.8593 114.591 68.7103C102.149 79.1276 73.1501 87.5251 56.7099 87.5251C55.1252 87.5251 53.6033 87.429 52.1074 87.2847L52.1074 96.0732L123.14 96.0732L123.14 21.0951L52.1074 21.0951ZM52.1074 43.4675L52.1074 36.694C52.7656 36.648 53.4289 36.6125 54.1063 36.5911C72.6293 36.0093 84.782 52.5087 84.782 52.5087C84.782 52.5087 71.6564 70.738 57.583 70.738C55.5577 70.738 53.7417 70.4125 52.1074 69.863L52.1074 49.3251C59.3184 50.1965 60.7697 53.3818 65.105 60.6088L74.7471 52.4782C74.7471 52.4782 67.7085 43.2472 55.8435 43.2472C54.5529 43.2472 53.3188 43.3378 52.1074 43.4675" fill="#74b71b" fill-rule="nonzero" opacity="1" stroke="none"/>
</g>
</g>
<g clip-path="url(#ArtboardFrame)" id="Oracle" visibility="hidden">
<path d="M69.2245 83.121L79.7769 83.121L74.2029 74.1196L63.9552 90.3775L59.2952 90.3775L71.7587 70.8722C72.31 70.0824 73.21 69.6089 74.1732 69.602C75.1364 69.5952 76.0431 70.0557 76.6056 70.8375L89.1037 90.3775L84.4437 90.3775L82.2488 86.7423L71.5717 86.7423L69.2452 83.121M117.666 86.7423L117.666 69.7989L113.705 69.7989L113.705 88.411C113.704 88.9337 113.916 89.4341 114.294 89.7958C114.672 90.1833 115.192 90.4007 115.734 90.3982L133.737 90.3982L136.084 86.7631L117.645 86.7631M52.1841 83.7164C56.0274 83.7164 59.1429 80.6009 59.1429 76.7577C59.1429 72.9145 56.0274 69.7989 52.1841 69.7989L34.8738 69.7989L34.8738 90.3775L38.8275 90.3775L38.8275 73.441L51.9418 73.441C53.7812 73.441 55.2723 74.9321 55.2723 76.7715C55.2723 78.6109 53.7812 80.102 51.9418 80.102L40.787 80.102L52.5996 90.3775L58.3397 90.3775L50.4046 83.7164L52.1841 83.7164M10.5562 90.3775L22.5142 90.3775C28.0909 90.2328 32.5366 85.6703 32.5366 80.0917C32.5366 74.513 28.0909 69.9505 22.5142 69.8058L10.5562 69.8058C6.81778 69.7088 3.32108 71.6478 1.42332 74.8702C-0.474441 78.0925-0.474441 82.0908 1.42332 85.3132C3.32108 88.5355 6.81778 90.4745 10.5562 90.3775M22.2441 86.7561L10.8193 86.7561C7.22597 86.6402 4.373 83.6938 4.373 80.0986C4.373 76.5034 7.22597 73.5569 10.8193 73.441L22.2441 73.441C24.6739 73.3626 26.9533 74.6141 28.1914 76.7063C29.4294 78.7984 29.4294 81.3988 28.1914 83.4909C26.9533 85.583 24.6739 86.8345 22.2441 86.7561M97.3642 90.3775L109.571 90.3775L111.884 86.7561L97.6342 86.7561C95.2045 86.8345 92.925 85.583 91.687 83.4909C90.449 81.3988 90.449 78.7984 91.687 76.7063C92.925 74.6141 95.2045 73.3626 97.6342 73.441L109.232 73.441L111.573 69.8058L97.3642 69.8058C93.6258 69.7088 90.1291 71.6478 88.2313 74.8702C86.3336 78.0925 86.3336 82.0908 88.2313 85.3132C90.1291 88.5355 93.6258 90.4745 97.3642 90.3775M145.743 86.7561C142.762 86.7573 140.143 84.7776 139.331 81.9092L156.24 81.9092L158.567 78.281L139.331 78.281C140.141 75.4112 142.761 73.4306 145.743 73.4341L157.348 73.4341L159.668 69.7989L145.473 69.7989C139.896 69.9436 135.451 74.5061 135.451 80.0847C135.451 85.6634 139.896 90.2258 145.473 90.3705L157.68 90.3705L160 86.7492L145.736 86.7492" fill="#c74634" fill-rule="nonzero" opacity="1" stroke="none"/>
</g>
<g id="PaloAlto" visibility="hidden">
<g opacity="1">
<path d="M68.0003 70.6987C65.9333 70.6987 63.7859 71.2645 61.1283 72.6937L62.6048 76.36C64.9128 75.0659 66.8192 74.5002 68.2153 74.5002C69.7992 74.5002 70.4973 75.0932 70.4973 75.8748L70.4973 75.9282C70.4973 76.4679 70.0674 76.7644 69.0209 76.8724L67.196 77.0609C62.6319 77.5461 60.7527 79.5411 60.7527 82.2905L60.7527 82.4791C60.7527 85.0944 62.9001 87.1428 65.9333 87.1428C67.9306 87.1428 69.6658 86.2959 70.7206 84.8015L71.0607 86.8736L75.1948 86.8736L75.1948 77.4654C75.1948 73.0175 72.6447 70.6987 68.0003 70.6987M67.5976 83.556C66.0679 83.556 65.3427 82.963 65.3427 82.0461L65.3427 81.9928C65.3427 81.1838 65.7986 80.5908 67.4629 80.3488L68.1881 80.2409C69.2476 80.0926 69.8985 79.8969 70.4973 79.5328L70.4973 80.726C70.4973 82.5324 69.3693 83.556 67.5976 83.556" fill="#000000" fill-rule="nonzero" opacity="1" stroke="none"/>
<path d="M15.8638 84.1194L29.1282 70.8066L23.8366 65.4965L18.545 70.8066L21.179 73.4493L7.92043 86.7645L13.2061 92.0782L18.4978 86.7645L15.8638 84.1194Z" fill="#000000" fill-rule="nonzero" opacity="1" stroke="none"/>
<path d="M0 78.8133L13.263 65.4949L13.263 65.4949L18.5515 70.8055L18.5515 70.8055L5.28849 84.1239L5.28849 84.1239L0 78.8133L0 78.8133Z" fill="#000000" fill-rule="nonzero" opacity="1" stroke="none"/>
<path d="M18.4949 86.7733L31.7579 73.4549L31.7579 73.4549L37.0463 78.7655L37.0463 78.7655L23.7834 92.0839L23.7834 92.0839L18.4949 86.7733L18.4949 86.7733Z" fill="#000000" fill-rule="nonzero" opacity="1" stroke="none"/>
<path d="M77.8749 65.3079L82.5723 65.3079L82.5723 65.3079L82.5723 86.8712L82.5723 86.8712L77.8749 86.8712L77.8749 86.8712L77.8749 65.3079L77.8749 65.3079Z" fill="#000000" fill-rule="nonzero" opacity="1" stroke="none"/>
<path d="M52.8578 70.6987C50.7223 70.6987 49.0072 71.6476 48.0635 73.1338L47.7044 70.9679L43.5703 70.9679L43.5703 92.2585L48.2678 92.2585L48.2678 84.8774C49.1619 86.2615 50.8534 87.1369 52.8578 87.1369C56.6163 87.1369 59.6767 83.7945 59.6767 79.1841L59.6767 78.6444C59.6767 74.0376 56.6163 70.694 52.8578 70.694M54.8445 79.0512C54.8445 81.4768 53.583 83.2299 51.4888 83.2299C49.3946 83.2299 48.1332 81.478 48.1332 79.0512L48.1332 78.782C48.1332 76.3552 49.3946 74.6033 51.4888 74.6033C53.583 74.6033 54.8445 76.3552 54.8445 78.782L54.8445 79.0512Z" fill="#000000" fill-rule="nonzero" opacity="1" stroke="none"/>
<path d="M145.993 70.6987C141.188 70.6987 137.805 74.0411 137.805 78.6515L137.805 79.1912C137.805 83.8004 141.188 87.144 145.993 87.144C150.798 87.144 154.18 83.8016 154.18 79.1912L154.18 78.6515C154.18 74.0423 150.798 70.6987 145.993 70.6987M149.348 79.056C149.348 81.4816 148.087 83.2346 145.993 83.2346C143.898 83.2346 142.637 81.4827 142.637 79.056L142.637 78.7867C142.637 76.36 143.898 74.6081 145.993 74.6081C148.087 74.6081 149.348 76.36 149.348 78.7867L149.348 79.056Z" fill="#000000" fill-rule="nonzero" opacity="1" stroke="none"/>
<path d="M158.513 71.6701L158.513 71.5895C158.513 71.1316 158.164 70.8078 157.547 70.8078L156.473 70.8078L156.473 73.288L156.983 73.288L156.983 72.4518L157.55 72.4518L157.977 73.288L158.54 73.288L158.016 72.3071C158.335 72.2086 158.513 71.969 158.513 71.6701M156.982 71.2657L157.546 71.2657C157.868 71.2657 158.001 71.3736 158.001 71.6167L158.001 71.644C158.001 71.8599 157.867 71.9939 157.546 71.9939L156.982 71.9939L156.982 71.2657Z" fill="#000000" fill-rule="nonzero" opacity="1" stroke="none"/>
<path d="M157.45 69.4865C156.001 69.4865 154.9 70.5919 154.9 72.0473C154.9 73.5026 156.001 74.6081 157.45 74.6081C158.899 74.6081 160 73.5026 160 72.0473C160 70.5919 158.899 69.4865 157.45 69.4865M157.45 74.257C156.188 74.257 155.275 73.3401 155.275 72.0461C155.275 70.7521 156.188 69.8352 157.45 69.8352C158.711 69.8352 159.624 70.7521 159.624 72.0461C159.624 73.3401 158.711 74.257 157.45 74.257" fill="#000000" fill-rule="nonzero" opacity="1" stroke="none"/>
<path d="M119.298 65.3079L123.996 65.3079L123.996 65.3079L123.996 86.8712L123.996 86.8712L119.298 86.8712L119.298 86.8712L119.298 65.3079L119.298 65.3079Z" fill="#000000" fill-rule="nonzero" opacity="1" stroke="none"/>
<path d="M133.236 83.2299C131.867 83.2299 131.357 82.5562 131.357 81.1008L131.357 74.6033L136.887 74.6033L136.887 70.9644L131.357 70.9644L131.357 67.3242L126.659 68.0252L126.659 81.5586C126.659 85.2522 128.539 87.1393 132.297 87.1393C133.961 87.1393 135.921 86.6269 137.532 85.71L136.19 82.3676C135.249 82.88 133.934 83.2311 133.236 83.2311" fill="#000000" fill-rule="nonzero" opacity="1" stroke="none"/>
<path d="M109.365 70.6987C107.298 70.6987 105.15 71.2645 102.493 72.6937L103.969 76.36C106.277 75.0659 108.184 74.5002 109.58 74.5002C111.164 74.5002 111.862 75.0932 111.862 75.8748L111.862 75.9282C111.862 76.4679 111.432 76.7644 110.385 76.8724L108.56 77.0609C103.996 77.5461 102.117 79.5411 102.117 82.2905L102.117 82.4791C102.117 85.0944 104.264 87.1428 107.298 87.1428C109.294 87.1428 111.03 86.2959 112.085 84.8015L112.425 86.8736L116.559 86.8736L116.559 77.4654C116.559 73.0175 114.009 70.6987 109.365 70.6987M108.962 83.556C107.431 83.556 106.707 82.963 106.707 82.0461L106.707 81.9928C106.707 81.1838 107.163 80.5908 108.827 80.3488L109.552 80.2409C110.612 80.0926 111.263 79.8969 111.86 79.5328L111.86 80.726C111.86 82.5324 110.734 83.556 108.962 83.556" fill="#000000" fill-rule="nonzero" opacity="1" stroke="none"/>
<path d="M92.852 70.6987C88.047 70.6987 84.6642 74.0411 84.6642 78.6515L84.6642 79.1912C84.6642 83.8004 88.047 87.144 92.852 87.144C97.657 87.144 101.04 83.8016 101.04 79.1912L101.04 78.6515C101.039 74.0423 97.657 70.6987 92.852 70.6987M96.2065 79.056C96.2065 81.4816 94.945 83.2346 92.8508 83.2346C90.7566 83.2346 89.4952 81.4827 89.4952 79.056L89.4952 78.7867C89.4952 76.36 90.7566 74.6081 92.8508 74.6081C94.945 74.6081 96.2065 76.36 96.2065 78.7867L96.2065 79.056Z" fill="#000000" fill-rule="nonzero" opacity="1" stroke="none"/>
<path d="M114.904 94.5809L113.203 92.3273L113.192 92.3273L113.192 94.5809L112.081 94.5809L112.081 90.7023L113.286 90.7023L114.952 92.8966L114.963 92.8966L114.963 90.7023L116.074 90.7023L116.074 94.5809L114.904 94.5809Z" fill="#000000" fill-rule="nonzero" opacity="1" stroke="none"/>
<path d="M118.708 93.0271L118.708 93.632L121.07 93.632L120.952 94.5809L117.538 94.5809L117.538 90.7023L120.952 90.7023L120.952 91.6393L118.708 91.6393L118.708 92.1731L120.479 92.1731L120.479 93.0271L118.708 93.0271Z" fill="#000000" fill-rule="nonzero" opacity="1" stroke="none"/>
<path d="M123.432 94.5809L123.432 91.6986L122.015 91.6986L122.015 90.7023L125.795 90.7023L125.913 91.6986L124.495 91.6986L124.495 94.5809L123.432 94.5809Z" fill="#000000" fill-rule="nonzero" opacity="1" stroke="none"/>
<path d="M131.582 93.3948L132.173 90.7023L133.354 90.7023L132.291 94.5809L130.874 94.5809L130.165 92.2324L130.047 92.2324L129.338 94.5809L127.803 94.5809L126.858 90.7023L128.039 90.7023L128.748 93.3948L128.748 93.3948L129.574 90.7023L130.756 90.7023L131.464 93.3948L131.582 93.3948Z" fill="#000000" fill-rule="nonzero" opacity="1" stroke="none"/>
<path d="M134.181 92.6357C134.181 91.3713 135.036 90.579 136.389 90.579C137.741 90.579 138.597 91.3713 138.597 92.6357C138.597 93.9 137.742 94.6924 136.389 94.6924C135.036 94.6924 134.181 93.8989 134.181 92.6357M137.443 92.6357C137.443 91.9655 137.057 91.5658 136.389 91.5658C135.72 91.5658 135.334 91.9655 135.334 92.6357C135.334 93.307 135.72 93.7055 136.383 93.7055C137.051 93.7055 137.443 93.3058 137.443 92.6357" fill="#000000" fill-rule="nonzero" opacity="1" stroke="none"/>
<path d="M139.851 90.7023L142.103 90.7023C143.129 90.7023 143.633 91.1898 143.633 92.0936C143.633 92.7139 143.379 93.1362 142.881 93.3355L143.798 94.5832L142.485 94.5832L141.772 93.5632L141.01 93.5632L141.01 94.5832L139.851 94.5832L139.851 90.7023ZM141.953 92.6535C142.339 92.6535 142.477 92.4376 142.477 92.1434C142.477 91.8493 142.339 91.6393 141.953 91.6393L141.009 91.6393L141.009 92.6535L141.953 92.6535Z" fill="#000000" fill-rule="nonzero" opacity="1" stroke="none"/>
<path d="M147.764 92.5645L149.3 94.569L149.3 94.5809L148.001 94.5809L146.819 93.0864L146.347 93.0864L146.347 94.5809L145.166 94.5809L145.166 90.7023L146.347 90.7023L146.347 92.1256L146.819 92.1256L147.882 90.7023L149.3 90.7023L149.3 90.7023L147.764 92.5645Z" fill="#000000" fill-rule="nonzero" opacity="1" stroke="none"/>
<path d="M150.245 94.3199L150.245 93.256L150.251 93.256C150.897 93.5834 151.526 93.7435 152.072 93.7435C152.487 93.7435 152.696 93.6438 152.696 93.4493C152.696 93.2548 152.557 93.205 151.729 93.0721C150.825 92.9286 150.222 92.6558 150.222 91.8742C150.222 91.1483 150.858 90.5884 152.099 90.5884C152.596 90.5884 153.115 90.694 153.596 90.8992L153.596 91.9525L153.59 91.9584C153.132 91.6927 152.514 91.5255 152.017 91.5255C151.575 91.5255 151.399 91.631 151.399 91.8078C151.399 92.0355 151.669 92.0568 152.348 92.1743C153.253 92.3296 153.856 92.5847 153.856 93.4054C153.856 94.0424 153.381 94.6805 152.018 94.6805C151.344 94.6805 150.808 94.5417 150.245 94.3199" fill="#000000" fill-rule="nonzero" opacity="1" stroke="none"/>
</g>
</g>
<g id="Sun" visibility="hidden">
<g opacity="1">
<path d="M91.9537 63.884C92.1857 63.652 92.3413 63.497 92.4186 63.3423L92.4186 63.3423L94.1209 56.8425L94.1209 56.8425C94.4302 55.6813 94.9724 54.4435 94.9724 53.1271C94.9724 52.7409 94.6622 52.4311 94.3529 52.1214C90.6383 50.1868 88.4722 49.9548 85.1444 49.8775C76.5546 49.7228 70.4406 55.7589 70.3633 62.2588C70.2086 70.0749 76.6319 74.7956 79.8819 80.4452C81.1197 82.5343 81.8939 84.6241 81.8165 87.1004C81.8165 89.6541 79.8819 96.3089 73.1494 96.1542C69.7442 96.0769 66.4941 93.7553 66.5719 87.951L66.5719 87.951L66.5719 83.7724L66.5719 83.7724C66.4942 83.3857 66.4942 82.999 66.1857 82.6889C66.0299 82.4568 65.5658 82.3022 65.2565 82.4568C64.6383 82.7662 64.482 83.4631 64.2508 84.0818C63.8638 85.862 63.4757 87.719 63.0907 89.4984C63.0134 89.6539 63.2446 89.6539 63.0907 89.6539C62.8575 90.9695 62.625 92.3622 62.5477 93.6778C62.4704 94.4511 63.0134 95.148 63.7081 95.6119C66.2631 96.9283 69.5131 97.9335 73.1494 98.0108C81.8939 98.1655 89.0136 90.5044 89.1683 82.9989C89.1683 82.07 89.0909 81.2186 89.0136 80.4449C88.2394 75.8788 85.2991 72.8607 82.2032 69.0688C80.346 66.6693 76.5546 63.4193 76.7093 59.1629C76.7093 55.6808 79.5723 51.8891 84.757 51.8891C91.6447 52.0434 90.5612 59.4728 90.6385 62.8001C90.6385 63.1872 90.6385 63.4965 90.9479 63.6517C91.2579 63.9614 91.6446 64.0392 91.9537 63.884L91.9537 63.884L91.9537 63.884L91.9537 63.884Z" fill="#4d66a9" fill-rule="evenodd" opacity="1" stroke="none"/>
<path d="M124.843 84.0046C123.992 84.0046 123.682 85.3202 122.831 86.8676C121.129 89.4985 118.419 92.9811 117.105 92.9811C116.64 92.9811 116.64 92.4397 116.64 91.9748C116.64 90.5046 118.11 85.7075 119.813 80.5227C122.212 73.1707 125.075 65.1221 125.075 64.7354C125.075 64.1937 124.998 63.8839 124.225 63.8839C123.605 63.8839 122.754 63.8065 121.515 63.8065C119.194 63.8065 119.039 64.1159 118.884 64.5802C117.723 66.6695 116.098 73.5572 112.771 79.516C112.616 79.8257 112.383 80.1351 112.229 80.4449C107.818 87.7961 102.169 93.5229 99.6932 93.5229C98.7643 93.5229 98.2222 92.8261 98.2222 91.82C98.2222 90.1951 100.003 85.4745 101.937 80.4449C104.181 74.6406 106.581 68.4498 106.581 66.0508C106.581 65.0446 106.038 62.955 103.562 62.955C96.831 62.955 91.1807 73.8669 91.1807 75.1051C91.1807 75.4921 91.4127 75.8015 91.8767 75.8015C92.7283 75.8015 93.2696 74.0216 95.4366 71.0807C96.6748 69.2235 98.3004 67.7529 99.0738 67.7529C99.6933 67.7529 99.7707 68.2172 99.7707 68.6044C99.7707 69.688 97.6037 74.8731 95.5139 80.4449C93.6578 85.3972 91.9541 90.6591 91.9541 93.7549C91.9541 95.7672 92.7283 97.7015 95.2828 97.7015C101.395 97.7015 107.973 90.0404 112.616 83.1535C112.848 82.9207 113.004 82.9207 112.926 83.3082C111.919 86.0939 110.604 91.5107 110.604 94.8385C110.604 96.2314 110.836 97.8562 113.08 97.8562C118.42 97.8562 125.462 87.2548 125.462 84.7785C125.462 84.3921 125.307 84.0046 124.843 84.0046L124.843 84.0046L124.843 84.0046L124.843 84.0046Z" fill="#4d66a9" fill-rule="evenodd" opacity="1" stroke="none"/>
<path d="M159.821 84.5468C159.666 84.2366 159.357 84.0819 159.048 84.0819C158.816 84.0819 158.583 84.3139 158.506 84.5468C157.035 87.1004 153.862 92.6727 151.696 92.8266C151.309 92.8266 151.077 92.4399 151.077 92.0523C151.077 90.7368 153.166 85.7077 155.178 80.4452C157.035 75.6472 158.816 70.6171 158.816 67.9857C158.816 64.3486 156.804 63.0326 154.404 63.0326C147.671 63.0326 140.552 73.7122 138.153 77.2724C137.998 77.5818 137.921 77.5044 137.998 77.1947C139.159 72.9388 140.552 69.1466 140.552 66.2832C140.552 64.5806 139.778 62.8006 137.534 62.8006C132.814 62.8006 126.004 72.0873 126.004 74.4089C126.004 74.8733 126.158 75.1826 126.468 75.1826C127.319 75.1826 128.016 73.635 129.254 71.9325C130.802 69.9975 132.737 67.521 133.974 67.521C134.13 67.521 134.362 67.6757 134.362 68.3726C134.362 69.8428 132.814 74.8733 130.956 80.4451C129.177 85.862 127.165 91.8202 125.926 95.7674C125.617 96.6954 126.236 96.9283 128.867 96.9283C130.725 96.9283 131.575 97.1603 131.963 95.6892C133.278 90.8138 135.754 85.3198 138.54 80.4449C138.773 79.903 139.081 79.4387 139.392 78.8973C142.255 73.8669 148.291 66.6695 151.696 66.6695C152.469 66.6695 152.934 67.289 152.934 68.4498C152.934 70.152 150.767 75.1051 148.6 80.4449C146.433 85.7845 144.189 91.5107 144.343 94.6838C144.421 96.4634 145.04 97.7788 147.362 97.7788C152.624 97.7788 157.19 90.5044 159.357 86.6352C159.744 86.0169 160.285 85.3202 159.821 84.5468L159.821 84.5468L159.821 84.5468L159.821 84.5468Z" fill="#4d66a9" fill-rule="evenodd" opacity="1" stroke="none"/>
<path d="M8.53199 78.0461C6.59739 80.0581 3.34688 80.0581 1.33495 78.0461C-0.444982 76.0338-0.444982 72.7837 1.33495 70.8491L1.33495 70.8491L13.1752 59.0088L16.2707 62.1816L4.43044 74.0997L5.28199 74.9508L5.28199 74.9508L17.1996 63.0326L20.372 66.2058L8.53199 78.0461L8.53199 78.0461L8.53199 78.0461L8.53199 78.0461Z" fill="#4d66a9" fill-rule="evenodd" opacity="1" stroke="none"/>
<path d="M17.7413 70.6944C19.7533 68.6821 22.9259 68.6821 24.9379 70.6944C26.9501 72.7063 26.9501 75.9563 24.9379 77.8914L24.9379 77.8914L13.1752 89.7314L10.0024 86.5582L21.8424 74.6409L20.9913 73.7899L20.9913 73.7899L9.07369 85.6302L5.97819 82.5343L17.7413 70.6944L17.7413 70.6944L17.7413 70.6944L17.7413 70.6944Z" fill="#4d66a9" fill-rule="evenodd" opacity="1" stroke="none"/>
<path d="M33.063 95.2255C35.0752 97.1605 35.0752 100.41 33.063 102.345C31.051 104.28 27.8013 104.28 25.8664 102.345L25.8664 102.345L14.0265 90.5823L17.1996 87.4099L29.1173 99.3276L29.9675 98.3987L29.9675 98.3987L18.0505 86.5584L21.2233 83.3861L33.063 95.2255L33.063 95.2255L33.063 95.2255L33.063 95.2255Z" fill="#4d66a9" fill-rule="evenodd" opacity="1" stroke="none"/>
<path d="M25.7121 86.0169C23.6998 84.0046 23.6998 80.7549 25.7121 78.8198C27.724 76.8079 30.8963 76.8079 32.9083 78.8198L32.9083 78.8198L44.7486 90.5821L41.5757 93.7553L29.6584 81.8376L28.8074 82.7665L28.8074 82.7665L40.647 94.6061L37.5515 97.7793L25.7121 86.0169L25.7121 86.0169L25.7121 86.0169L25.7121 86.0169Z" fill="#4d66a9" fill-rule="evenodd" opacity="1" stroke="none"/>
<path d="M41.0342 78.0461C39.0223 80.0581 35.7729 80.0581 33.8372 78.0461C31.8249 76.0338 31.8249 72.7837 33.8372 70.8491L33.8372 70.8491L45.5998 59.0088L48.773 62.1816L36.8553 74.0997L37.7837 74.9508L37.7837 74.9508L49.7013 63.0326L52.7972 66.2058L41.0342 78.0461L41.0342 78.0461L41.0342 78.0461L41.0342 78.0461Z" fill="#4d66a9" fill-rule="evenodd" opacity="1" stroke="none"/>
<path d="M50.2444 70.6944C52.1778 68.6821 55.4278 68.6821 57.4403 70.6944C59.4522 72.7063 59.4522 75.879 57.4403 77.8914L57.4403 77.8914L45.6 89.7314L42.4271 86.5582L54.3448 74.6409L53.4946 73.7899L53.4946 73.7899L41.5761 85.6302L38.4029 82.5343L50.2444 70.6944L50.2444 70.6944L50.2444 70.6944L50.2444 70.6944Z" fill="#4d66a9" fill-rule="evenodd" opacity="1" stroke="none"/>
<path d="M33.063 62.7233C35.0752 64.7356 35.0752 67.9084 33.063 69.9203C31.051 71.9326 27.8013 71.9326 25.8664 69.9203L25.8664 69.9203L14.0265 58.1572L17.1996 54.9849L29.1173 66.8248L29.9675 65.9738L29.9675 65.9738L18.0505 54.0565L21.2233 50.8837L33.063 62.7233L33.063 62.7233L33.063 62.7233L33.063 62.7233Z" fill="#4d66a9" fill-rule="evenodd" opacity="1" stroke="none"/>
<path d="M25.7121 53.5146C23.6998 51.58 23.6998 48.3295 25.7121 46.3176C27.724 44.3057 30.8963 44.3057 32.9083 46.3176L32.9083 46.3176L44.7486 58.1572L41.5757 61.2531L29.6584 49.4131L28.8074 50.2641L28.8074 50.2641L40.647 62.1814L37.5515 65.3543L25.7121 53.5146L25.7121 53.5146L25.7121 53.5146L25.7121 53.5146Z" fill="#4d66a9" fill-rule="evenodd" opacity="1" stroke="none"/>
<path d="M74.6195 111.555L74.6195 106.988L74.6195 106.988C74.6195 105.982 74.311 105.364 73.3813 105.364C72.2977 105.364 71.292 106.446 71.292 108.149L71.292 108.149L71.292 111.554L69.9764 111.554L69.9764 106.988L69.9764 106.988C69.9764 106.059 69.8214 105.363 68.8155 105.363C67.6546 105.363 66.7259 106.524 66.7259 108.149L66.7259 108.149L66.7259 111.554L65.4103 111.554L65.4103 104.435L66.7259 104.435L66.7259 104.435C66.7259 104.821 66.6486 105.441 66.5712 105.905L66.5712 105.905L66.5712 105.905L66.5712 105.905C67.0356 104.899 67.9653 104.28 69.2022 104.28C70.7501 104.28 71.138 105.285 71.2141 105.905C71.5238 105.208 72.2977 104.28 73.6909 104.28C75.0838 104.28 75.9361 104.976 75.9361 106.601L75.9361 106.601L75.9361 111.554L74.6195 111.554L74.6195 111.555L74.6195 111.555Z" fill="#4d66a9" fill-rule="evenodd" opacity="1" stroke="none"/>
<path d="M85.9176 111.632C84.2153 111.632 82.7453 110.858 82.7453 108.227C82.7453 105.905 83.9843 104.28 86.3824 104.28C86.9238 104.28 87.5433 104.358 88.0074 104.512L88.0074 104.512L87.8527 105.673L87.8527 105.673C87.3887 105.518 86.8465 105.364 86.3051 105.364C84.9122 105.364 84.1382 106.446 84.1382 108.072C84.1382 109.465 84.6795 110.548 86.2278 110.548C86.8465 110.548 87.4652 110.394 87.93 110.162L87.93 110.162L88.0847 111.323L88.0847 111.323C87.5433 111.477 86.7691 111.632 85.9176 111.632L85.9176 111.632L85.9176 111.632L85.9176 111.632Z" fill="#4d66a9" fill-rule="evenodd" opacity="1" stroke="none"/>
<path d="M93.7342 105.518C92.1101 105.285 91.4125 106.369 91.4125 108.691L91.4125 108.691L91.4125 111.554L90.097 111.554L90.097 104.435L91.3352 104.435L91.3352 104.435C91.3352 104.821 91.3352 105.518 91.1805 106.137L91.1805 106.137L91.2579 106.137L91.2579 106.137C91.5672 105.131 92.2633 104.125 93.7342 104.28L93.7342 104.28L93.7342 105.518L93.7342 105.518L93.7342 105.518Z" fill="#4d66a9" fill-rule="evenodd" opacity="1" stroke="none"/>
<path d="M98.5329 104.28C96.2878 104.28 94.8949 105.905 94.8949 107.995L94.8949 107.995L94.8949 108.072L94.8949 108.072C94.8949 110.548 96.2105 111.709 98.2219 111.709C100.311 111.709 101.782 110.084 101.859 107.995C101.859 107.917 101.859 107.917 101.859 107.84C101.859 105.286 100.389 104.28 98.5329 104.28L98.5329 104.28L98.5329 104.28L98.5329 104.28ZM98.3774 110.626C97.061 110.626 96.2878 109.619 96.2878 107.995L96.2878 107.995L96.2878 107.917L96.2878 107.917C96.2878 106.137 97.294 105.364 98.3774 105.364C99.7695 105.364 100.466 106.292 100.466 107.917L100.466 107.917L100.466 107.995L100.466 107.995C100.466 109.774 99.461 110.626 98.3774 110.626L98.3774 110.626L98.3774 110.626L98.3774 110.626Z" fill="#4d66a9" fill-rule="evenodd" opacity="1" stroke="none"/>
<path d="M105.264 111.709C104.722 111.709 104.181 111.632 103.716 111.555L103.716 111.555L103.793 110.394L103.793 110.394C104.258 110.548 104.8 110.626 105.419 110.626C106.348 110.626 107.044 110.239 107.044 109.542C107.044 107.995 103.639 108.923 103.639 106.446C103.639 105.208 104.645 104.28 106.581 104.28C106.967 104.28 107.509 104.358 107.973 104.435L107.973 104.435L107.973 105.518L107.973 105.518C107.509 105.364 106.967 105.286 106.425 105.286C105.496 105.286 104.956 105.673 104.956 106.292C104.956 107.84 108.437 106.989 108.437 109.388C108.437 110.703 107.276 111.709 105.264 111.709L105.264 111.709L105.264 111.709L105.264 111.709Z" fill="#4d66a9" fill-rule="evenodd" opacity="1" stroke="none"/>
<path d="M113.235 112.25C112.383 114.495 111.687 115.192 110.062 115.192C109.754 115.192 109.365 115.192 109.056 115.114L109.056 115.114L109.211 113.953L109.211 113.953C109.52 114.031 109.83 114.108 110.14 114.108C110.99 114.108 111.379 113.721 111.919 112.328L111.919 112.328L112.229 111.554L109.443 104.435L110.991 104.435L112.383 108.149L112.383 108.149C112.616 108.768 112.771 109.31 112.926 109.851L112.926 109.851L112.926 109.851L112.926 109.851C113.08 109.387 113.39 108.459 113.7 107.685L113.7 107.685L114.861 104.435L116.331 104.435L113.235 112.25L113.235 112.25L113.235 112.25Z" fill="#4d66a9" fill-rule="evenodd" opacity="1" stroke="none"/>
<path d="M119.039 111.709C118.497 111.709 117.955 111.632 117.491 111.555L117.491 111.555L117.569 110.394L117.569 110.394C117.955 110.548 118.575 110.626 119.116 110.626C120.122 110.626 120.818 110.239 120.818 109.542C120.818 107.995 117.337 108.923 117.337 106.446C117.337 105.208 118.419 104.28 120.354 104.28C120.741 104.28 121.283 104.358 121.747 104.435L121.747 104.435L121.67 105.518L121.67 105.518C121.206 105.364 120.741 105.286 120.2 105.286C119.271 105.286 118.729 105.673 118.729 106.292C118.729 107.84 122.212 106.989 122.212 109.388C122.212 110.703 120.974 111.709 119.039 111.709L119.039 111.709L119.039 111.709L119.039 111.709Z" fill="#4d66a9" fill-rule="evenodd" opacity="1" stroke="none"/>
<path d="M126.623 111.709C125.152 111.709 124.688 111.09 124.688 109.542L124.688 109.542L124.688 105.441L123.14 105.441L123.14 104.435L124.688 104.435L124.688 102.113L126.004 101.726L126.004 104.435L128.094 104.435L128.094 105.441L126.004 105.441L126.004 109.078L126.004 109.078C126.004 110.239 126.236 110.549 127.088 110.549C127.397 110.549 127.784 110.471 128.094 110.471L128.094 110.471L128.094 111.555L128.094 111.555C127.629 111.632 127.087 111.709 126.623 111.709L126.623 111.709L126.623 111.709L126.623 111.709Z" fill="#4d66a9" fill-rule="evenodd" opacity="1" stroke="none"/>
<path d="M135.755 107.298C135.755 106.834 135.676 106.446 135.599 106.06C135.212 105.053 134.361 104.28 132.814 104.28C131.421 104.28 130.493 104.976 129.95 106.06C129.718 106.602 129.564 107.298 129.564 107.995C129.564 110.548 130.802 111.709 133.046 111.709C133.975 111.709 134.826 111.554 135.523 111.245L135.523 111.245L135.367 110.161L135.367 110.161C134.826 110.471 133.975 110.626 133.278 110.626C131.653 110.626 130.879 109.851 130.957 107.917L130.957 107.917L135.755 107.917L135.755 107.917C135.755 107.685 135.755 107.452 135.755 107.298L135.755 107.298L135.755 107.298L135.755 107.298ZM130.957 106.988C131.034 106.679 131.111 106.369 131.266 106.06C131.575 105.518 132.118 105.208 132.814 105.208C133.509 105.208 133.975 105.518 134.284 106.06C134.361 106.369 134.439 106.679 134.439 106.988L134.439 106.988L130.957 106.988L130.957 106.988L130.957 106.988Z" fill="#4d66a9" fill-rule="evenodd" opacity="1" stroke="none"/>
<path d="M146.975 111.555L146.975 106.988L146.975 106.988C146.975 105.982 146.743 105.364 145.736 105.364C144.731 105.364 143.725 106.446 143.725 108.149L143.725 108.149L143.725 111.554L142.332 111.554L142.332 106.988L142.332 106.988C142.332 106.059 142.177 105.363 141.171 105.363C140.01 105.363 139.082 106.524 139.082 108.149L139.082 108.149L139.082 111.554L137.766 111.554L137.766 104.435L139.082 104.435L139.082 104.435C139.082 104.821 139.004 105.441 138.927 105.905L138.927 105.905L139.004 105.905L139.004 105.905C139.392 104.899 140.32 104.28 141.558 104.28C143.105 104.28 143.493 105.285 143.571 105.905C143.879 105.208 144.654 104.28 146.124 104.28C147.517 104.28 148.291 104.976 148.291 106.601L148.291 106.601L148.291 111.554L146.975 111.554L146.975 111.555L146.975 111.555Z" fill="#4d66a9" fill-rule="evenodd" opacity="1" stroke="none"/>
<path d="M151.928 111.709C151.386 111.709 150.845 111.632 150.38 111.555L150.38 111.555L150.457 110.394L150.457 110.394C150.922 110.548 151.464 110.626 152.083 110.626C153.012 110.626 153.708 110.239 153.708 109.542C153.708 107.995 150.303 108.923 150.303 106.446C150.303 105.208 151.309 104.28 153.245 104.28C153.63 104.28 154.173 104.358 154.637 104.435L154.637 104.435L154.637 105.518L154.637 105.518C154.173 105.364 153.63 105.286 153.089 105.286C152.16 105.286 151.619 105.673 151.619 106.292C151.619 107.84 155.101 106.989 155.101 109.388C155.101 110.703 153.94 111.709 151.928 111.709L151.928 111.709L151.928 111.709L151.928 111.709Z" fill="#4d66a9" fill-rule="evenodd" opacity="1" stroke="none"/>
<path d="M79.6494 103.197C80.1911 103.197 80.5783 102.809 80.5783 102.345C80.5783 101.881 80.1911 101.571 79.6494 101.571C79.1862 101.571 78.7984 101.881 78.7984 102.345C78.7984 102.886 79.1862 103.197 79.6494 103.197L79.6494 103.197L79.6494 103.197L79.6494 103.197Z" fill="#4d66a9" fill-rule="evenodd" opacity="1" stroke="none"/>
<path d="M77.9473 104.358L77.9473 105.364L79.0307 105.364L79.0307 111.555L80.3458 111.555L80.3458 104.435L77.9473 104.358L77.9473 104.358Z" fill="#4d66a9" fill-rule="evenodd" opacity="1" stroke="none"/>
</g>
</g>
</svg>
